Patient4_TMGait_0pt7_01_left_02_GRF.mot
version=1
nRows=46
nColumns=19
inDegrees=no
endheader
time	F1x	F1y	F1z	M1x	M1y	M1z	F2x	F2y	F2z	M2x	M2y	M2z	EC1x	EC1y	EC1z	EC2x	EC2y	EC2z
2.28	-17.5508	-0.18486	5.7684	-1.719	-4.0035	7.0236	-11.4488	732.1015	-48.9975	219.5185	62.4784	723.0302	-0.0592	0.0182	-0.0073	-0.0462	0.0165	0.9585
2.2917	-11.8583	0.57782	4.0344	-1.4743	-2.7636	5.4686	-12.8577	722.9477	-54.2115	218.2894	64.34	711.5709	-0.0592	0.0182	-0.0073	-0.0462	0.0165	0.9585
2.3034	-7.091	1.2566	2.5425	-1.2634	-1.736	4.2341	-13.7511	715.5658	-58.321	217.2942	65.4617	701.2973	-0.0592	0.0182	-0.0073	-0.0462	0.0165	0.9585
2.3151	-3.4828	1.8017	1.3881	-1.1061	-0.97119	3.348	-14.0763	710.9291	-61.0689	216.7624	65.7719	693.2309	-0.0592	0.0182	-0.0073	-0.0462	0.0165	0.9585
2.3269	-1.0282	2.2335	0.58501	-1.0119	-0.47676	2.8139	-13.8639	709.5248	-62.5617	216.8729	65.394	687.897	-0.0592	0.0182	-0.0073	-0.0462	0.0165	0.9585
2.3386	0.45822	2.549	0.086572	-0.97052	-0.20461	2.5261	-13.169	711.4452	-63.1163	217.7305	64.5592	685.4147	-0.0592	0.0182	-0.0073	-0.0462	0.0165	0.9585
2.3503	1.1842	2.7652	-0.17126	-0.96596	-0.10675	2.4245	-12.0348	716.4394	-63.1112	219.3477	63.5092	685.5504	-0.0592	0.0182	-0.0073	-0.0462	0.0165	0.9585
2.362	1.3869	2.872	-0.24971	-0.97308	-0.13895	2.3979	-10.4894	723.9777	-62.8701	221.6443	62.4266	687.7995	-0.0592	0.0182	-0.0073	-0.0462	0.0165	0.9585
2.3737	1.2308	2.8558	-0.20799	-0.96529	-0.26892	2.3565	-8.5593	733.3231	-62.6298	224.4581	61.4267	691.4729	-0.0592	0.0182	-0.0073	-0.0462	0.0165	0.9585
2.3854	0.86945	2.6809	-0.080041	-0.90962	-0.47796	2.186	-6.2746	743.6146	-62.4962	227.5679	60.5293	695.776	-0.0592	0.0182	-0.0073	-0.0462	0.0165	0.9585
2.3971	0.39054	2.2925	0.093941	-0.77092	-0.74461	1.7929	-3.6889	753.9759	-62.5202	230.7266	59.7312	699.9329	-0.0592	0.0182	-0.0073	-0.0462	0.0165	0.9585
2.4089	-0.12662	1.6143	0.297	-0.51044	-1.0545	1.0626	-0.85185	763.5441	-62.7136	233.6731	59.0136	703.1955	-0.0592	0.0182	-0.0073	-0.0462	0.0165	0.9585
2.4206	-0.62221	0.57671	0.49524	-0.093802	-1.3664	-0.076516	2.1458	771.5175	-63.0892	236.1496	58.3844	704.8998	-0.0592	0.0182	-0.0073	-0.0462	0.0165	0.9585
2.4323	-1.0172	-0.87948	0.6656	0.50389	-1.6321	-1.6822	5.233	777.1726	-63.6447	237.9189	57.8434	704.4486	-0.0592	0.0182	-0.0073	-0.0462	0.0165	0.9585
2.444	-1.2357	-2.7513	0.7719	1.2776	-1.778	-3.7226	8.3219	779.9158	-64.3529	238.7867	57.3763	701.3834	-0.0592	0.0182	-0.0073	-0.0462	0.0165	0.9585
2.4557	-1.1388	-4.9093	0.76709	2.1689	-1.6926	-6.0577	11.4045	779.3243	-65.1627	238.6208	56.9312	695.3757	-0.0592	0.0182	-0.0073	-0.0462	0.0165	0.9585
2.4674	-0.56688	-7.0388	0.59589	3.0437	-1.2399	-8.3528	14.4793	775.2491	-66.0074	237.3778	56.4429	686.3615	-0.0592	0.0182	-0.0073	-0.0462	0.0165	0.9585
2.4791	0.70027	-8.5743	0.16643	3.6584	-0.22716	-10.0088	17.593	767.7946	-66.8432	235.0991	55.8574	674.4605	-0.0592	0.0182	-0.0073	-0.0462	0.0165	0.9585
2.4909	2.8927	-8.6203	-0.59457	3.63	1.5314	-10.0567	20.7416	757.438	-67.6283	231.9401	55.1389	660.1423	-0.0592	0.0182	-0.0073	-0.0462	0.0165	0.9585
2.5026	6.2077	-5.8866	-1.7852	2.412	4.2276	-7.1147	23.9184	744.952	-68.341	228.1502	54.2814	644.1053	-0.0592	0.0182	-0.0073	-0.0462	0.0165	0.9585
2.5143	10.7316	1.2902	-3.4361	-0.69273	7.9348	0.6109	27.0335	731.3501	-68.9258	224.0502	53.2808	627.2937	-0.0592	0.0182	-0.0073	-0.0462	0.0165	0.9585
2.526	16.3262	14.843	-5.5352	-6.4904	12.5747	15.2074	30.023	717.6074	-69.3239	219.9437	52.1323	610.6068	-0.0592	0.0182	-0.0073	-0.0462	0.0165	0.9585
2.5377	22.4426	36.6924	-7.9054	-15.775	17.7228	38.7552	32.7613	704.4239	-69.4342	216.0381	50.8117	594.7517	-0.0592	0.0182	-0.0073	-0.0462	0.0165	0.9585
2.5494	27.9277	68.2534	-10.1718	-29.1166	22.48	72.8153	35.1764	691.8973	-69.1405	212.3476	49.2723	579.9024	-0.0592	0.0182	-0.0073	-0.0462	0.0165	0.9585
2.5611	30.8894	109.7879	-11.7	-46.5827	25.3739	117.7298	37.1706	679.4151	-68.2942	208.6602	47.4483	565.6495	-0.0592	0.0182	-0.0073	-0.0462	0.0165	0.9585
2.5729	29.2005	160.0344	-11.6654	-67.5884	24.6412	172.2097	38.7465	665.6247	-66.736	204.5432	45.2379	550.902	-0.0592	0.0182	-0.0073	-0.0462	0.0165	0.9585
2.5846	22.2516	216.9184	-9.1646	-91.1781	19.071	234.0841	39.9121	648.8145	-64.3243	199.462	42.542	534.2607	-0.0592	0.0182	-0.0073	-0.0462	0.0165	0.9585
2.5963	11.2883	277.6591	-3.7749	-116.1087	8.6998	300.2674	40.7271	627.2782	-60.9423	192.8973	39.2567	514.2744	-0.0592	0.0182	-0.0073	-0.0462	0.0165	0.9585
2.608	-1.9943	337.9728	4.6119	-140.5949	-5.8445	365.8537	41.1953	599.5633	-56.5956	184.4113	35.3826	489.7144	-0.0592	0.0182	-0.0073	-0.0462	0.0165	0.9585
2.6197	-15.6956	393.8473	15.0979	-163.0577	-22.7429	426.1213	41.3085	564.6433	-51.3789	173.7023	30.9889	459.682	-0.0592	0.0182	-0.0073	-0.0462	0.0165	0.9585
2.6314	-28.3225	443.9845	26.097	-183.0586	-39.6178	479.3914	40.9228	522.2165	-45.4826	160.6821	26.2602	423.9227	-0.0592	0.0182	-0.0073	-0.0462	0.0165	0.9585
2.6431	-39.0756	489.3857	36.3573	-201.0921	-54.7706	526.6138	39.8863	472.768	-39.1847	145.4984	21.4496	382.8131	-0.0592	0.0182	-0.0073	-0.0462	0.0165	0.9585
2.6549	-47.3565	531.4248	45.034	-217.7906	-67.0776	569.2024	38.0109	417.5021	-32.7914	128.5167	16.833	337.3315	-0.0592	0.0182	-0.0073	-0.0462	0.0165	0.9585
2.6666	-52.8112	570.7095	51.7233	-233.4423	-75.9802	607.8058	35.1385	358.2064	-26.5685	110.285	12.6426	288.9006	-0.0592	0.0182	-0.0073	-0.0462	0.0165	0.9585
2.6783	-55.2326	607.0541	56.4801	-247.9637	-81.4922	642.2126	31.162	297.2265	-20.7461	91.5212	9.0701	239.4073	-0.0592	0.0182	-0.0073	-0.0462	0.0165	0.9585
2.69	-54.7362	639.9407	59.8321	-261.0916	-84.2385	672.0085	26.178	237.2783	-15.5434	73.059	6.2443	190.9979	-0.0592	0.0182	-0.0073	-0.0462	0.0165	0.9585
2.7017	-51.7278	668.9457	62.2815	-272.5921	-84.9484	696.8969	20.5235	181.2183	-11.1403	55.7762	4.2012	145.9091	-0.0592	0.0182	-0.0073	-0.0462	0.0165	0.9585
2.7134	-46.8744	693.7626	64.4623	-282.2729	-84.5699	716.8181	14.7812	131.5364	-7.6239	40.4459	2.8468	106.0611	-0.0592	0.0182	-0.0073	-0.0462	0.0165	0.9585
2.7251	-40.8501	714.1107	66.7506	-289.9828	-83.8019	731.6947	9.576	89.8858	-4.926	27.5911	1.9645	72.7145	-0.0592	0.0182	-0.0073	-0.0462	0.0165	0.9585
2.7369	-34.3318	729.8273	69.423	-295.646	-83.2118	741.5779	5.3274	56.8809	-2.9207	17.4128	1.3582	46.3171	-0.0592	0.0182	-0.0073	-0.0462	0.0165	0.9585
2.7486	-27.7646	741.047	72.3516	-299.3509	-82.8737	746.7642	2.1802	32.2591	-1.4771	9.8344	0.90704	26.6396	-0.0592	0.0182	-0.0073	-0.0462	0.0165	0.9585
2.7603	-21.454	748.2894	75.22	-301.3517	-82.5981	747.9229	0.085674	15.1802	-0.49576	4.5923	0.56096	13.0044	-0.0592	0.0182	-0.0073	-0.0462	0.0165	0.9585
2.772	-15.5518	752.164	77.5999	-301.9568	-82.0272	745.7535	-1.0996	4.4137	0.090369	1.3002	0.31528	4.4074	-0.0592	0.0182	-0.0073	-0.0462	0.0165	0.9585
2.7837	-10.1525	753.214	79.1307	-301.4405	-80.8441	740.9032	-1.6232	-1.461	0.3856	-0.48382	0.15421	-0.28694	-0.0592	0.0182	-0.0073	-0.0462	0.0165	0.9585
2.7954	-5.2801	751.8097	79.687	-299.9911	-78.933	733.8081	-1.7095	-3.8912	0.47467	-1.207	0.069575	-2.2418	-0.0592	0.0182	-0.0073	-0.0462	0.0165	0.9585
2.8071	-0.98263	748.2809	79.3445	-297.7535	-76.3746	724.876	-1.5598	-4.1379	0.43879	-1.2585	0.04618	-2.4607	-0.0592	0.0182	-0.0073	-0.0462	0.0165	0.9585
